<svg width="811" height="191" viewBox="0 0 811 191" fill="none" xmlns="http://www.w3.org/2000/svg">
<path d="M0.676 35L11.908 9.8H17.668L28.936 35H22.816L13.6 12.752H15.904L6.652 35H0.676ZM6.292 29.6L7.84 25.172H20.8L22.384 29.6H6.292ZM42.9265 15.344C44.4625 15.344 45.8305 15.656 47.0305 16.28C48.2545 16.88 49.2145 17.816 49.9105 19.088C50.6065 20.336 50.9545 21.944 50.9545 23.912V35H45.3385V24.776C45.3385 23.216 44.9905 22.064 44.2945 21.32C43.6225 20.576 42.6625 20.204 41.4145 20.204C40.5265 20.204 39.7225 20.396 39.0025 20.78C38.3065 21.14 37.7545 21.704 37.3465 22.472C36.9625 23.24 36.7705 24.224 36.7705 25.424V35H31.1545V15.632H36.5185V20.996L35.5105 19.376C36.2065 18.08 37.2025 17.084 38.4985 16.388C39.7945 15.692 41.2705 15.344 42.9265 15.344ZM65.2938 42.272C63.4698 42.272 61.7058 42.044 60.0018 41.588C58.3218 41.156 56.9178 40.496 55.7898 39.608L58.0218 35.576C58.8378 36.248 59.8698 36.776 61.1178 37.16C62.3898 37.568 63.6378 37.772 64.8618 37.772C66.8538 37.772 68.2938 37.328 69.1818 36.44C70.0938 35.552 70.5498 34.232 70.5498 32.48V29.564L70.9098 24.704L70.8378 19.808V15.632H76.1658V31.76C76.1658 35.36 75.2298 38.012 73.3578 39.716C71.4858 41.42 68.7978 42.272 65.2938 42.272ZM64.4298 34.064C62.6298 34.064 60.9978 33.68 59.5338 32.912C58.0938 32.12 56.9298 31.028 56.0418 29.636C55.1778 28.22 54.7458 26.576 54.7458 24.704C54.7458 22.808 55.1778 21.164 56.0418 19.772C56.9298 18.356 58.0938 17.264 59.5338 16.496C60.9978 15.728 62.6298 15.344 64.4298 15.344C66.0618 15.344 67.5018 15.68 68.7498 16.352C69.9978 17 70.9698 18.02 71.6658 19.412C72.3618 20.78 72.7098 22.544 72.7098 24.704C72.7098 26.84 72.3618 28.604 71.6658 29.996C70.9698 31.364 69.9978 32.384 68.7498 33.056C67.5018 33.728 66.0618 34.064 64.4298 34.064ZM65.5458 29.456C66.5298 29.456 67.4058 29.264 68.1738 28.88C68.9418 28.472 69.5418 27.908 69.9738 27.188C70.4058 26.468 70.6218 25.64 70.6218 24.704C70.6218 23.744 70.4058 22.916 69.9738 22.22C69.5418 21.5 68.9418 20.948 68.1738 20.564C67.4058 20.156 66.5298 19.952 65.5458 19.952C64.5618 19.952 63.6858 20.156 62.9178 20.564C62.1498 20.948 61.5378 21.5 61.0818 22.22C60.6498 22.916 60.4338 23.744 60.4338 24.704C60.4338 25.64 60.6498 26.468 61.0818 27.188C61.5378 27.908 62.1498 28.472 62.9178 28.88C63.6858 29.264 64.5618 29.456 65.5458 29.456ZM90.5008 42.272C88.6768 42.272 86.9128 42.044 85.2088 41.588C83.5288 41.156 82.1248 40.496 80.9968 39.608L83.2288 35.576C84.0448 36.248 85.0768 36.776 86.3248 37.16C87.5968 37.568 88.8448 37.772 90.0688 37.772C92.0608 37.772 93.5008 37.328 94.3888 36.44C95.3008 35.552 95.7568 34.232 95.7568 32.48V29.564L96.1168 24.704L96.0448 19.808V15.632H101.373V31.76C101.373 35.36 100.437 38.012 98.5648 39.716C96.6928 41.42 94.0048 42.272 90.5008 42.272ZM89.6368 34.064C87.8368 34.064 86.2048 33.68 84.7408 32.912C83.3008 32.12 82.1368 31.028 81.2488 29.636C80.3848 28.22 79.9528 26.576 79.9528 24.704C79.9528 22.808 80.3848 21.164 81.2488 19.772C82.1368 18.356 83.3008 17.264 84.7408 16.496C86.2048 15.728 87.8368 15.344 89.6368 15.344C91.2688 15.344 92.7088 15.68 93.9568 16.352C95.2048 17 96.1768 18.02 96.8728 19.412C97.5688 20.78 97.9168 22.544 97.9168 24.704C97.9168 26.84 97.5688 28.604 96.8728 29.996C96.1768 31.364 95.2048 32.384 93.9568 33.056C92.7088 33.728 91.2688 34.064 89.6368 34.064ZM90.7528 29.456C91.7368 29.456 92.6128 29.264 93.3808 28.88C94.1488 28.472 94.7488 27.908 95.1808 27.188C95.6128 26.468 95.8288 25.64 95.8288 24.704C95.8288 23.744 95.6128 22.916 95.1808 22.22C94.7488 21.5 94.1488 20.948 93.3808 20.564C92.6128 20.156 91.7368 19.952 90.7528 19.952C89.7688 19.952 88.8928 20.156 88.1248 20.564C87.3568 20.948 86.7448 21.5 86.2888 22.22C85.8568 22.916 85.6408 23.744 85.6408 24.704C85.6408 25.64 85.8568 26.468 86.2888 27.188C86.7448 27.908 87.3568 28.472 88.1248 28.88C88.8928 29.264 89.7688 29.456 90.7528 29.456ZM115.816 35.288C113.752 35.288 111.916 34.856 110.308 33.992C108.724 33.128 107.464 31.952 106.528 30.464C105.616 28.952 105.16 27.236 105.16 25.316C105.16 23.372 105.616 21.656 106.528 20.168C107.464 18.656 108.724 17.48 110.308 16.64C111.916 15.776 113.752 15.344 115.816 15.344C117.856 15.344 119.68 15.776 121.288 16.64C122.896 17.48 124.156 18.644 125.068 20.132C125.98 21.62 126.436 23.348 126.436 25.316C126.436 27.236 125.98 28.952 125.068 30.464C124.156 31.952 122.896 33.128 121.288 33.992C119.68 34.856 117.856 35.288 115.816 35.288ZM115.816 30.68C116.752 30.68 117.592 30.464 118.336 30.032C119.08 29.6 119.668 28.988 120.1 28.196C120.532 27.38 120.748 26.42 120.748 25.316C120.748 24.188 120.532 23.228 120.1 22.436C119.668 21.644 119.08 21.032 118.336 20.6C117.592 20.168 116.752 19.952 115.816 19.952C114.88 19.952 114.04 20.168 113.296 20.6C112.552 21.032 111.952 21.644 111.496 22.436C111.064 23.228 110.848 24.188 110.848 25.316C110.848 26.42 111.064 27.38 111.496 28.196C111.952 28.988 112.552 29.6 113.296 30.032C114.04 30.464 114.88 30.68 115.816 30.68ZM138.11 35.288C135.83 35.288 134.054 34.712 132.782 33.56C131.51 32.384 130.874 30.644 130.874 28.34V11.348H136.49V28.268C136.49 29.084 136.706 29.72 137.138 30.176C137.57 30.608 138.158 30.824 138.902 30.824C139.79 30.824 140.546 30.584 141.17 30.104L142.682 34.064C142.106 34.472 141.41 34.784 140.594 35C139.802 35.192 138.974 35.288 138.11 35.288ZM127.886 20.384V16.064H141.314V20.384H127.886ZM157.714 35V31.22L157.354 30.392V23.624C157.354 22.424 156.982 21.488 156.238 20.816C155.518 20.144 154.402 19.808 152.89 19.808C151.858 19.808 150.838 19.976 149.83 20.312C148.846 20.624 148.006 21.056 147.31 21.608L145.294 17.684C146.35 16.94 147.622 16.364 149.11 15.956C150.598 15.548 152.11 15.344 153.646 15.344C156.598 15.344 158.89 16.04 160.522 17.432C162.154 18.824 162.97 20.996 162.97 23.948V35H157.714ZM151.81 35.288C150.298 35.288 149.002 35.036 147.922 34.532C146.842 34.004 146.014 33.296 145.438 32.408C144.862 31.52 144.574 30.524 144.574 29.42C144.574 28.268 144.85 27.26 145.402 26.396C145.978 25.532 146.878 24.86 148.102 24.38C149.326 23.876 150.922 23.624 152.89 23.624H158.038V26.9H153.502C152.182 26.9 151.27 27.116 150.766 27.548C150.286 27.98 150.046 28.52 150.046 29.168C150.046 29.888 150.322 30.464 150.874 30.896C151.45 31.304 152.23 31.508 153.214 31.508C154.15 31.508 154.99 31.292 155.734 30.86C156.478 30.404 157.018 29.744 157.354 28.88L158.218 31.472C157.81 32.72 157.066 33.668 155.986 34.316C154.906 34.964 153.514 35.288 151.81 35.288Z" fill="#E6E7EB"/>
<path d="M357.988 35V9.8H369.436C372.172 9.8 374.584 10.328 376.672 11.384C378.76 12.416 380.392 13.868 381.568 15.74C382.744 17.612 383.332 19.832 383.332 22.4C383.332 24.944 382.744 27.164 381.568 29.06C380.392 30.932 378.76 32.396 376.672 33.452C374.584 34.484 372.172 35 369.436 35H357.988ZM363.82 30.212H369.148C370.828 30.212 372.28 29.9 373.504 29.276C374.752 28.628 375.712 27.716 376.384 26.54C377.08 25.364 377.428 23.984 377.428 22.4C377.428 20.792 377.08 19.412 376.384 18.26C375.712 17.084 374.752 16.184 373.504 15.56C372.28 14.912 370.828 14.588 369.148 14.588H363.82V30.212ZM387.334 35V15.632H392.95V35H387.334ZM390.142 12.932C389.11 12.932 388.27 12.632 387.622 12.032C386.974 11.432 386.65 10.688 386.65 9.8C386.65 8.912 386.974 8.168 387.622 7.568C388.27 6.968 389.11 6.668 390.142 6.668C391.174 6.668 392.014 6.956 392.662 7.532C393.31 8.084 393.634 8.804 393.634 9.692C393.634 10.628 393.31 11.408 392.662 12.032C392.038 12.632 391.198 12.932 390.142 12.932ZM403.418 35L395.282 15.632H401.078L407.846 32.3H404.966L411.986 15.632H417.386L409.214 35H403.418ZM419.678 35V15.632H425.294V35H419.678ZM422.486 12.932C421.454 12.932 420.614 12.632 419.966 12.032C419.318 11.432 418.994 10.688 418.994 9.8C418.994 8.912 419.318 8.168 419.966 7.568C420.614 6.968 421.454 6.668 422.486 6.668C423.518 6.668 424.358 6.956 425.006 7.532C425.654 8.084 425.978 8.804 425.978 9.692C425.978 10.628 425.654 11.408 425.006 12.032C424.382 12.632 423.542 12.932 422.486 12.932ZM437.022 35.288C435.366 35.288 433.77 35.096 432.234 34.712C430.722 34.304 429.522 33.8 428.634 33.2L430.506 29.168C431.394 29.72 432.438 30.176 433.638 30.536C434.862 30.872 436.062 31.04 437.238 31.04C438.534 31.04 439.446 30.884 439.974 30.572C440.526 30.26 440.802 29.828 440.802 29.276C440.802 28.82 440.586 28.484 440.154 28.268C439.746 28.028 439.194 27.848 438.498 27.728C437.802 27.608 437.034 27.488 436.194 27.368C435.378 27.248 434.55 27.092 433.71 26.9C432.87 26.684 432.102 26.372 431.406 25.964C430.71 25.556 430.146 25.004 429.714 24.308C429.306 23.612 429.102 22.712 429.102 21.608C429.102 20.384 429.45 19.304 430.146 18.368C430.866 17.432 431.898 16.7 433.242 16.172C434.586 15.62 436.194 15.344 438.066 15.344C439.386 15.344 440.73 15.488 442.098 15.776C443.466 16.064 444.606 16.484 445.518 17.036L443.646 21.032C442.71 20.48 441.762 20.108 440.802 19.916C439.866 19.7 438.954 19.592 438.066 19.592C436.818 19.592 435.906 19.76 435.33 20.096C434.754 20.432 434.466 20.864 434.466 21.392C434.466 21.872 434.67 22.232 435.078 22.472C435.51 22.712 436.074 22.904 436.77 23.048C437.466 23.192 438.222 23.324 439.038 23.444C439.878 23.54 440.718 23.696 441.558 23.912C442.398 24.128 443.154 24.44 443.826 24.848C444.522 25.232 445.086 25.772 445.518 26.468C445.95 27.14 446.166 28.028 446.166 29.132C446.166 30.332 445.806 31.4 445.086 32.336C444.366 33.248 443.322 33.968 441.954 34.496C440.61 35.024 438.966 35.288 437.022 35.288ZM449.631 35V15.632H455.247V35H449.631ZM452.439 12.932C451.407 12.932 450.567 12.632 449.919 12.032C449.271 11.432 448.947 10.688 448.947 9.8C448.947 8.912 449.271 8.168 449.919 7.568C450.567 6.968 451.407 6.668 452.439 6.668C453.471 6.668 454.311 6.956 454.959 7.532C455.607 8.084 455.931 8.804 455.931 9.692C455.931 10.628 455.607 11.408 454.959 12.032C454.335 12.632 453.495 12.932 452.439 12.932Z" fill="#E6E7EB"/>
<path d="M668.988 35V9.8H679.896C682.152 9.8 684.096 10.172 685.728 10.916C687.36 11.636 688.62 12.68 689.508 14.048C690.396 15.416 690.84 17.048 690.84 18.944C690.84 20.816 690.396 22.436 689.508 23.804C688.62 25.172 687.36 26.228 685.728 26.972C684.096 27.692 682.152 28.052 679.896 28.052H672.228L674.82 25.424V35H668.988ZM674.82 26.072L672.228 23.3H679.572C681.372 23.3 682.716 22.916 683.604 22.148C684.492 21.38 684.936 20.312 684.936 18.944C684.936 17.552 684.492 16.472 683.604 15.704C682.716 14.936 681.372 14.552 679.572 14.552H672.228L674.82 11.78V26.072ZM694.572 35V15.632H699.936V21.104L699.18 19.52C699.756 18.152 700.68 17.12 701.952 16.424C703.224 15.704 704.772 15.344 706.596 15.344V20.528C706.356 20.504 706.14 20.492 705.948 20.492C705.756 20.468 705.552 20.456 705.336 20.456C703.8 20.456 702.552 20.9 701.592 21.788C700.656 22.652 700.188 24.008 700.188 25.856V35H694.572ZM719.011 35.288C716.947 35.288 715.111 34.856 713.503 33.992C711.919 33.128 710.659 31.952 709.723 30.464C708.811 28.952 708.355 27.236 708.355 25.316C708.355 23.372 708.811 21.656 709.723 20.168C710.659 18.656 711.919 17.48 713.503 16.64C715.111 15.776 716.947 15.344 719.011 15.344C721.051 15.344 722.875 15.776 724.483 16.64C726.091 17.48 727.351 18.644 728.263 20.132C729.175 21.62 729.631 23.348 729.631 25.316C729.631 27.236 729.175 28.952 728.263 30.464C727.351 31.952 726.091 33.128 724.483 33.992C722.875 34.856 721.051 35.288 719.011 35.288ZM719.011 30.68C719.947 30.68 720.787 30.464 721.531 30.032C722.275 29.6 722.863 28.988 723.295 28.196C723.727 27.38 723.943 26.42 723.943 25.316C723.943 24.188 723.727 23.228 723.295 22.436C722.863 21.644 722.275 21.032 721.531 20.6C720.787 20.168 719.947 19.952 719.011 19.952C718.075 19.952 717.235 20.168 716.491 20.6C715.747 21.032 715.147 21.644 714.691 22.436C714.259 23.228 714.043 24.188 714.043 25.316C714.043 26.42 714.259 27.38 714.691 28.196C715.147 28.988 715.747 29.6 716.491 30.032C717.235 30.464 718.075 30.68 719.011 30.68ZM738.029 31.04L738.173 24.2L747.209 15.632H753.905L745.229 24.452L742.313 26.828L738.029 31.04ZM733.385 35V8.288H739.001V35H733.385ZM747.821 35L741.269 26.864L744.797 22.508L754.625 35H747.821ZM765.954 35.288C763.746 35.288 761.802 34.856 760.122 33.992C758.466 33.128 757.182 31.952 756.27 30.464C755.358 28.952 754.902 27.236 754.902 25.316C754.902 23.372 755.346 21.656 756.234 20.168C757.146 18.656 758.382 17.48 759.942 16.64C761.502 15.776 763.266 15.344 765.234 15.344C767.13 15.344 768.834 15.752 770.346 16.568C771.882 17.36 773.094 18.512 773.982 20.024C774.87 21.512 775.314 23.3 775.314 25.388C775.314 25.604 775.302 25.856 775.278 26.144C775.254 26.408 775.23 26.66 775.206 26.9H759.474V23.624H772.254L770.094 24.596C770.094 23.588 769.89 22.712 769.482 21.968C769.074 21.224 768.51 20.648 767.79 20.24C767.07 19.808 766.23 19.592 765.27 19.592C764.31 19.592 763.458 19.808 762.714 20.24C761.994 20.648 761.43 21.236 761.022 22.004C760.614 22.748 760.41 23.636 760.41 24.668V25.532C760.41 26.588 760.638 27.524 761.094 28.34C761.574 29.132 762.234 29.744 763.074 30.176C763.938 30.584 764.946 30.788 766.098 30.788C767.13 30.788 768.03 30.632 768.798 30.32C769.59 30.008 770.31 29.54 770.958 28.916L773.946 32.156C773.058 33.164 771.942 33.944 770.598 34.496C769.254 35.024 767.706 35.288 765.954 35.288ZM779.053 35V15.632H784.417V21.104L783.661 19.52C784.237 18.152 785.161 17.12 786.433 16.424C787.705 15.704 789.253 15.344 791.077 15.344V20.528C790.837 20.504 790.621 20.492 790.429 20.492C790.237 20.468 790.033 20.456 789.817 20.456C788.281 20.456 787.033 20.9 786.073 21.788C785.137 22.652 784.669 24.008 784.669 25.856V35H779.053Z" fill="#E6E7EB"/>
<path d="M20.328 159L15.7548 156.979L12.6513 164H20.328V159ZM56.424 77.336L60.7115 74.7635L55.7497 66.4938L51.8508 75.3146L56.424 77.336ZM61.8 86.296V91.296H70.631L66.0875 83.7235L61.8 86.296ZM13.544 86.296L9.91424 82.8573L1.91966 91.296H13.544V86.296ZM22.76 76.568H27.76V64.0201L19.1302 73.1293L22.76 76.568ZM22.76 100.888V105.888H27.76V100.888H22.76ZM4.328 100.888H-0.672V105.888H4.328V100.888ZM4.328 69.4V64.4H-0.672V69.4H4.328ZM76.136 69.4H81.136V64.4H76.136V69.4ZM76.136 82.84L80.7177 84.8421L81.136 83.8847V82.84H76.136ZM42.856 159V164H46.1277L47.4377 161.002L42.856 159ZM24.9012 161.021L60.9972 79.3574L51.8508 75.3146L15.7548 156.979L24.9012 161.021ZM52.1365 79.9085L57.5125 88.8685L66.0875 83.7235L60.7115 74.7635L52.1365 79.9085ZM61.8 81.296H13.544V91.296H61.8V81.296ZM17.1738 89.7347L26.3898 80.0067L19.1302 73.1293L9.91424 82.8573L17.1738 89.7347ZM17.76 76.568V100.888H27.76V76.568H17.76ZM22.76 95.888H4.328V105.888H22.76V95.888ZM9.328 100.888V69.4H-0.672V100.888H9.328ZM4.328 74.4H76.136V64.4H4.328V74.4ZM71.136 69.4V82.84H81.136V69.4H71.136ZM71.5543 80.8379L38.2743 156.998L47.4377 161.002L80.7177 84.8421L71.5543 80.8379ZM42.856 154H20.328V164H42.856V154ZM101.555 155.16L98.8827 159.386L98.905 159.4L98.9275 159.414L101.555 155.16ZM87.859 139.288L83.354 141.457L87.859 139.288ZM87.859 89.112L92.364 91.2811L87.859 89.112ZM101.555 73.368L104.182 77.622L104.205 77.6081L104.227 77.594L101.555 73.368ZM140.979 73.368L138.278 77.5759L138.315 77.5993L138.352 77.622L140.979 73.368ZM154.675 89.112L150.17 91.2811V91.2811L154.675 89.112ZM154.675 139.288L150.17 137.119L154.675 139.288ZM140.979 155.16L143.635 159.396L143.643 159.391L143.651 159.386L140.979 155.16ZM130.355 140.056L127.376 136.041L127.344 136.064L127.313 136.088L130.355 140.056ZM136.499 130.712L131.795 129.018L131.779 129.06L131.765 129.102L136.499 130.712ZM136.499 97.688L131.765 99.2975L131.779 99.3397L131.795 99.3816L136.499 97.688ZM130.355 88.344L127.313 92.312L127.344 92.336L127.376 92.3595L130.355 88.344ZM112.179 88.344L109.2 84.3285L109.168 84.352L109.137 84.376L112.179 88.344ZM106.035 97.688L101.331 95.9944L101.315 96.0363L101.301 96.0785L106.035 97.688ZM106.035 130.712L101.301 132.322L101.315 132.364L101.331 132.406L106.035 130.712ZM112.179 140.056L109.137 144.024L109.168 144.048L109.2 144.071L112.179 140.056ZM121.267 155.536C114.783 155.536 109.135 153.965 104.182 150.906L98.9275 159.414C105.58 163.523 113.074 165.536 121.267 165.536V155.536ZM104.227 150.934C99.3066 147.822 95.3349 143.289 92.364 137.119L83.354 141.457C87.0391 149.111 92.198 155.159 98.8827 159.386L104.227 150.934ZM92.364 137.119C89.4396 131.045 87.867 123.465 87.867 114.2H77.867C77.867 124.562 79.6224 133.707 83.354 141.457L92.364 137.119ZM87.867 114.2C87.867 104.935 89.4396 97.3548 92.364 91.2811L83.354 86.9429C79.6224 94.6932 77.867 103.838 77.867 114.2H87.867ZM92.364 91.2811C95.3312 85.1184 99.2903 80.6436 104.182 77.622L98.9275 69.114C92.2144 73.2604 87.0428 79.2816 83.354 86.9429L92.364 91.2811ZM104.227 77.594C109.175 74.4655 114.806 72.864 121.267 72.864V62.864C113.05 62.864 105.541 64.9319 98.8827 69.142L104.227 77.594ZM121.267 72.864C127.826 72.864 133.441 74.4715 138.278 77.5759L143.68 69.1601C137.082 64.9259 129.556 62.864 121.267 62.864V72.864ZM138.352 77.622C143.244 80.6436 147.203 85.1184 150.17 91.2811L159.18 86.9429C155.491 79.2816 150.32 73.2604 143.606 69.114L138.352 77.622ZM150.17 91.2811C153.094 97.3548 154.667 104.935 154.667 114.2H164.667C164.667 103.838 162.912 94.6932 159.18 86.9429L150.17 91.2811ZM154.667 114.2C154.667 123.465 153.094 131.045 150.17 137.119L159.18 141.457C162.912 133.707 164.667 124.562 164.667 114.2H154.667ZM150.17 137.119C147.199 143.289 143.227 147.822 138.307 150.934L143.651 159.386C150.336 155.159 155.495 149.111 159.18 141.457L150.17 137.119ZM138.323 150.924C133.481 153.959 127.849 155.536 121.267 155.536V165.536C129.533 165.536 137.043 163.529 143.635 159.396L138.323 150.924ZM121.267 148C125.767 148 129.889 146.714 133.397 144.024L127.313 136.088C125.701 137.324 123.765 138 121.267 138V148ZM133.334 144.071C137.046 141.318 139.573 137.205 141.233 132.322L131.765 129.102C130.524 132.753 128.955 134.869 127.376 136.041L133.334 144.071ZM141.203 132.406C143.006 127.4 143.803 121.265 143.803 114.2H133.803C133.803 120.618 133.064 125.491 131.795 129.018L141.203 132.406ZM143.803 114.2C143.803 107.135 143.006 101 141.203 95.9944L131.795 99.3816C133.064 102.909 133.803 107.782 133.803 114.2H143.803ZM141.233 96.0785C139.573 91.1953 137.046 87.0822 133.334 84.3285L127.376 92.3595C128.955 93.5311 130.524 95.6473 131.765 99.2975L141.233 96.0785ZM133.397 84.376C129.889 81.6863 125.767 80.4 121.267 80.4V90.4C123.765 90.4 125.701 91.0764 127.313 92.312L133.397 84.376ZM121.267 80.4C116.822 80.4 112.74 81.7021 109.2 84.3285L115.158 92.3595C116.909 91.0606 118.885 90.4 121.267 90.4V80.4ZM109.137 84.376C105.566 87.1133 103.065 91.1765 101.331 95.9944L110.739 99.3816C112.077 95.6661 113.672 93.5001 115.221 92.312L109.137 84.376ZM101.301 96.0785C99.6099 101.053 98.859 107.155 98.859 114.2H108.859C108.859 107.762 109.559 102.857 110.769 99.2975L101.301 96.0785ZM98.859 114.2C98.859 121.245 99.6099 127.347 101.301 132.322L110.769 129.102C109.559 125.543 108.859 120.638 108.859 114.2H98.859ZM101.331 132.406C103.065 137.223 105.566 141.287 109.137 144.024L115.221 136.088C113.672 134.9 112.077 132.734 110.739 129.018L101.331 132.406ZM109.2 144.071C112.74 146.698 116.822 148 121.267 148V138C118.885 138 116.909 137.339 115.158 136.041L109.2 144.071Z" fill="white"/>
<path d="M666.328 159L661.755 156.979L658.651 164H666.328V159ZM702.424 77.336L706.711 74.7635L701.75 66.4938L697.851 75.3146L702.424 77.336ZM707.8 86.296V91.296H716.631L712.087 83.7235L707.8 86.296ZM659.544 86.296L655.914 82.8573L647.92 91.296H659.544V86.296ZM668.76 76.568H673.76V64.0201L665.13 73.1293L668.76 76.568ZM668.76 100.888V105.888H673.76V100.888H668.76ZM650.328 100.888H645.328V105.888H650.328V100.888ZM650.328 69.4V64.4H645.328V69.4H650.328ZM722.136 69.4H727.136V64.4H722.136V69.4ZM722.136 82.84L726.718 84.8421L727.136 83.8847V82.84H722.136ZM688.856 159V164H692.128L693.438 161.002L688.856 159ZM670.901 161.021L706.997 79.3574L697.851 75.3146L661.755 156.979L670.901 161.021ZM698.137 79.9085L703.513 88.8685L712.087 83.7235L706.711 74.7635L698.137 79.9085ZM707.8 81.296H659.544V91.296H707.8V81.296ZM663.174 89.7347L672.39 80.0067L665.13 73.1293L655.914 82.8573L663.174 89.7347ZM663.76 76.568V100.888H673.76V76.568H663.76ZM668.76 95.888H650.328V105.888H668.76V95.888ZM655.328 100.888V69.4H645.328V100.888H655.328ZM650.328 74.4H722.136V64.4H650.328V74.4ZM717.136 69.4V82.84H727.136V69.4H717.136ZM717.554 80.8379L684.274 156.998L693.438 161.002L726.718 84.8421L717.554 80.8379ZM688.856 154H666.328V164H688.856V154ZM747.555 155.16L744.883 159.386L744.905 159.4L744.928 159.414L747.555 155.16ZM733.859 139.288L729.354 141.457L733.859 139.288ZM733.859 89.112L738.364 91.2811L733.859 89.112ZM747.555 73.368L750.182 77.622L750.205 77.6081L750.227 77.594L747.555 73.368ZM786.979 73.368L784.278 77.5759L784.315 77.5993L784.352 77.622L786.979 73.368ZM800.675 89.112L796.17 91.2811V91.2811L800.675 89.112ZM800.675 139.288L796.17 137.119L800.675 139.288ZM786.979 155.16L789.635 159.396L789.643 159.391L789.651 159.386L786.979 155.16ZM776.355 140.056L773.376 136.041L773.344 136.064L773.313 136.088L776.355 140.056ZM782.499 130.712L777.795 129.018L777.779 129.06L777.765 129.102L782.499 130.712ZM782.499 97.688L777.765 99.2975L777.779 99.3397L777.795 99.3816L782.499 97.688ZM776.355 88.344L773.313 92.312L773.344 92.336L773.376 92.3595L776.355 88.344ZM758.179 88.344L755.2 84.3285L755.168 84.352L755.137 84.376L758.179 88.344ZM752.035 97.688L747.331 95.9944L747.315 96.0363L747.301 96.0785L752.035 97.688ZM752.035 130.712L747.301 132.322L747.315 132.364L747.331 132.406L752.035 130.712ZM758.179 140.056L755.137 144.024L755.168 144.048L755.2 144.071L758.179 140.056ZM767.267 155.536C760.783 155.536 755.135 153.965 750.182 150.906L744.928 159.414C751.58 163.523 759.074 165.536 767.267 165.536V155.536ZM750.227 150.934C745.307 147.822 741.335 143.289 738.364 137.119L729.354 141.457C733.039 149.111 738.198 155.159 744.883 159.386L750.227 150.934ZM738.364 137.119C735.44 131.045 733.867 123.465 733.867 114.2H723.867C723.867 124.562 725.622 133.707 729.354 141.457L738.364 137.119ZM733.867 114.2C733.867 104.935 735.44 97.3548 738.364 91.2811L729.354 86.9429C725.622 94.6932 723.867 103.838 723.867 114.2H733.867ZM738.364 91.2811C741.331 85.1184 745.29 80.6436 750.182 77.622L744.928 69.114C738.214 73.2604 733.043 79.2816 729.354 86.9429L738.364 91.2811ZM750.227 77.594C755.175 74.4655 760.806 72.864 767.267 72.864V62.864C759.05 62.864 751.541 64.9319 744.883 69.142L750.227 77.594ZM767.267 72.864C773.826 72.864 779.441 74.4715 784.278 77.5759L789.68 69.1601C783.082 64.9259 775.556 62.864 767.267 62.864V72.864ZM784.352 77.622C789.244 80.6436 793.203 85.1184 796.17 91.2811L805.18 86.9429C801.491 79.2816 796.32 73.2604 789.606 69.114L784.352 77.622ZM796.17 91.2811C799.094 97.3548 800.667 104.935 800.667 114.2H810.667C810.667 103.838 808.912 94.6932 805.18 86.9429L796.17 91.2811ZM800.667 114.2C800.667 123.465 799.094 131.045 796.17 137.119L805.18 141.457C808.912 133.707 810.667 124.562 810.667 114.2H800.667ZM796.17 137.119C793.199 143.289 789.227 147.822 784.307 150.934L789.651 159.386C796.336 155.159 801.495 149.111 805.18 141.457L796.17 137.119ZM784.323 150.924C779.481 153.959 773.849 155.536 767.267 155.536V165.536C775.533 165.536 783.043 163.529 789.635 159.396L784.323 150.924ZM767.267 148C771.767 148 775.889 146.714 779.397 144.024L773.313 136.088C771.701 137.324 769.765 138 767.267 138V148ZM779.334 144.071C783.046 141.318 785.573 137.205 787.233 132.322L777.765 129.102C776.524 132.753 774.955 134.869 773.376 136.041L779.334 144.071ZM787.203 132.406C789.006 127.4 789.803 121.265 789.803 114.2H779.803C779.803 120.618 779.064 125.491 777.795 129.018L787.203 132.406ZM789.803 114.2C789.803 107.135 789.006 101 787.203 95.9944L777.795 99.3816C779.064 102.909 779.803 107.782 779.803 114.2H789.803ZM787.233 96.0785C785.573 91.1953 783.046 87.0822 779.334 84.3285L773.376 92.3595C774.955 93.5311 776.524 95.6473 777.765 99.2975L787.233 96.0785ZM779.397 84.376C775.889 81.6863 771.767 80.4 767.267 80.4V90.4C769.765 90.4 771.701 91.0764 773.313 92.312L779.397 84.376ZM767.267 80.4C762.822 80.4 758.74 81.7021 755.2 84.3285L761.158 92.3595C762.909 91.0606 764.885 90.4 767.267 90.4V80.4ZM755.137 84.376C751.566 87.1133 749.065 91.1765 747.331 95.9944L756.739 99.3816C758.077 95.6661 759.672 93.5001 761.221 92.312L755.137 84.376ZM747.301 96.0785C745.61 101.053 744.859 107.155 744.859 114.2H754.859C754.859 107.762 755.559 102.857 756.769 99.2975L747.301 96.0785ZM744.859 114.2C744.859 121.245 745.61 127.347 747.301 132.322L756.769 129.102C755.559 125.543 754.859 120.638 754.859 114.2H744.859ZM747.331 132.406C749.065 137.223 751.566 141.287 755.137 144.024L761.221 136.088C759.672 134.9 758.077 132.734 756.739 129.018L747.331 132.406ZM755.2 144.071C758.74 146.698 762.822 148 767.267 148V138C764.885 138 762.909 137.339 761.158 136.041L755.2 144.071Z" fill="white"/>
<path d="M386.328 159L422.424 77.336L427.8 86.296H379.544L388.76 76.568V100.888H370.328V69.4H442.136V82.84L408.856 159H386.328Z" fill="white"/>
</svg>
