<svg width="80" height="80" viewBox="0 0 80 80" fill="none" xmlns="http://www.w3.org/2000/svg">
<rect width="80" height="80" rx="8" fill="#D9D9D9"/>
<path d="M37 57.8835C37 57.8835 34 57.8835 34 54.9765C34 52.0696 37 43.3487 49 43.3487C61 43.3487 64 52.0696 64 54.9765C64 57.8835 61 57.8835 61 57.8835H37ZM49 40.4417C51.3869 40.4417 53.6761 39.5229 55.364 37.8875C57.0518 36.252 58 34.0338 58 31.7209C58 29.4079 57.0518 27.1898 55.364 25.5543C53.6761 23.9188 51.3869 23 49 23C46.6131 23 44.3239 23.9188 42.636 25.5543C40.9482 27.1898 40 29.4079 40 31.7209C40 34.0338 40.9482 36.252 42.636 37.8875C44.3239 39.5229 46.6131 40.4417 49 40.4417Z" fill="#1E2748"/>
<path fill-rule="evenodd" clip-rule="evenodd" d="M31.648 57.8835C31.2033 56.976 30.9815 55.981 31 54.9766C31 51.0376 33.04 46.9824 36.808 44.1627C34.9273 43.6012 32.9678 43.3266 31 43.3487C19 43.3487 16 52.0696 16 54.9766C16 57.8835 19 57.8835 19 57.8835H31.648Z" fill="#1E2748"/>
<path d="M29.5 40.4417C31.4891 40.4417 33.3968 39.6761 34.8033 38.3132C36.2098 36.9503 37 35.1018 37 33.1743C37 31.2469 36.2098 29.3984 34.8033 28.0355C33.3968 26.6726 31.4891 25.907 29.5 25.907C27.5109 25.907 25.6032 26.6726 24.1967 28.0355C22.7902 29.3984 22 31.2469 22 33.1743C22 35.1018 22.7902 36.9503 24.1967 38.3132C25.6032 39.6761 27.5109 40.4417 29.5 40.4417V40.4417Z" fill="#1E2748"/>
</svg>
