<svg width="80" height="80" viewBox="0 0 80 80" fill="none" xmlns="http://www.w3.org/2000/svg">
<rect width="80" height="80" rx="8" fill="#E8E8E8"/>
<path d="M38 33.6899C38 37.9728 34.42 41.4417 30 41.4417C25.58 41.4417 22 37.9728 22 33.6899C22 29.4069 25.58 25.938 30 25.938C34.42 25.938 38 29.4069 38 33.6899ZM38 46.713V56.9455H16V53.0696C16 48.7866 22.26 45.3177 30 45.3177C33 45.3177 35.74 45.8409 38 46.713ZM64 56.9455H42V24H64V56.9455ZM48 40.4727C48 39.1878 48.5268 37.9555 49.4645 37.0469C50.4021 36.1383 51.6739 35.6278 53 35.6278C54.3261 35.6278 55.5979 36.1383 56.5355 37.0469C57.4732 37.9555 58 39.1878 58 40.4727C58 41.7577 57.4732 42.99 56.5355 43.8986C55.5979 44.8072 54.3261 45.3177 53 45.3177C51.6739 45.3177 50.4021 44.8072 49.4645 43.8986C48.5268 42.99 48 41.7577 48 40.4727ZM60 31.7519C58.9391 31.7519 57.9217 31.3435 57.1716 30.6166C56.4214 29.8898 56 28.9039 56 27.8759H50C50 30.0271 48.22 31.7519 46 31.7519V49.1936C47.0609 49.1936 48.0783 49.602 48.8284 50.3289C49.5786 51.0557 50 52.0416 50 53.0696H56C56 50.9378 57.8 49.1936 60 49.1936V31.7519Z" fill="#1E2748"/>
</svg>
