<svg width="44" height="44" viewBox="0 0 44 44" fill="none" xmlns="http://www.w3.org/2000/svg">
<rect width="44" height="44" rx="8" fill="white"/>
<path d="M21.9967 17.5982C19.5728 17.5982 17.5948 19.5762 17.5948 22C17.5948 24.4239 19.5728 26.4019 21.9967 26.4019C24.4205 26.4019 26.3986 24.4239 26.3986 22C26.3986 19.5762 24.4205 17.5982 21.9967 17.5982ZM35.199 22C35.199 20.1772 35.2155 18.3709 35.1131 16.5514C35.0108 14.4379 34.5287 12.5623 32.9832 11.0168C31.4345 9.46808 29.5621 8.98926 27.4487 8.88689C25.6258 8.78452 23.8195 8.80103 22 8.80103C20.1772 8.80103 18.3708 8.78452 16.5513 8.88689C14.4379 8.98926 12.5622 9.47138 11.0168 11.0168C9.46802 12.5656 8.9892 14.4379 8.88683 16.5514C8.78446 18.3742 8.80097 20.1805 8.80097 22C8.80097 23.8196 8.78446 25.6292 8.88683 27.4487C8.9892 29.5622 9.47132 31.4378 11.0168 32.9833C12.5655 34.532 14.4379 35.0108 16.5513 35.1132C18.3741 35.2156 20.1805 35.1991 22 35.1991C23.8228 35.1991 25.6291 35.2156 27.4487 35.1132C29.5621 35.0108 31.4378 34.5287 32.9832 32.9833C34.532 31.4345 35.0108 29.5622 35.1131 27.4487C35.2188 25.6292 35.199 23.8229 35.199 22ZM21.9967 28.7729C18.2487 28.7729 15.2238 25.7481 15.2238 22C15.2238 18.252 18.2487 15.2272 21.9967 15.2272C25.7447 15.2272 28.7696 18.252 28.7696 22C28.7696 25.7481 25.7447 28.7729 21.9967 28.7729ZM29.0469 16.5316C28.1719 16.5316 27.4652 15.8249 27.4652 14.9498C27.4652 14.0747 28.1719 13.368 29.0469 13.368C29.922 13.368 30.6287 14.0747 30.6287 14.9498C30.629 15.1576 30.5882 15.3634 30.5088 15.5554C30.4294 15.7474 30.3129 15.9219 30.166 16.0688C30.0191 16.2158 29.8446 16.3323 29.6526 16.4117C29.4605 16.4911 29.2547 16.5318 29.0469 16.5316Z" fill="#1746F9"/>
</svg>
