<svg width="44" height="44" viewBox="0 0 44 44" fill="none" xmlns="http://www.w3.org/2000/svg">
<rect width="44" height="44" rx="8" fill="white"/>
<path d="M22.0907 11.4399H22.2473C23.6941 11.4456 31.025 11.502 33.0016 12.0695C33.5991 12.2427 34.1436 12.5803 34.5807 13.0485C35.0177 13.5168 35.332 14.0993 35.4921 14.7379C35.6699 15.452 35.7949 16.3972 35.8794 17.3725L35.897 17.5679L35.9357 18.0565L35.9498 18.2519C36.0642 19.9695 36.0783 21.5781 36.08 21.9295V22.0704C36.0783 22.435 36.0624 24.1525 35.9357 25.9415L35.9216 26.1388L35.9058 26.3342C35.8178 27.4091 35.6875 28.4765 35.4921 29.262C35.3325 29.9008 35.0184 30.4836 34.5813 30.952C34.1441 31.4203 33.5994 31.7577 33.0016 31.9304C30.9599 32.5167 23.1995 32.5581 22.1241 32.5599H21.8742C21.3303 32.5599 19.0809 32.5487 16.7223 32.4622L16.4231 32.451L16.27 32.4434L15.969 32.4303L15.668 32.4171C13.7143 32.325 11.8539 32.1766 10.9967 31.9285C10.3991 31.756 9.85449 31.4189 9.41738 30.9509C8.98027 30.4829 8.66603 29.9005 8.50613 29.262C8.31076 28.4784 8.18051 27.4091 8.0925 26.3342L8.07842 26.1369L8.06434 25.9415C7.97748 24.6682 7.92934 23.3922 7.92001 22.1155L7.92001 21.8844C7.92353 21.4804 7.93761 20.0841 8.03266 18.5432L8.04498 18.3497L8.05026 18.2519L8.06434 18.0565L8.10306 17.5679L8.12067 17.3725C8.20515 16.3972 8.33012 15.4501 8.50789 14.7379C8.66752 14.0991 8.98165 13.5163 9.41877 13.0479C9.8559 12.5796 10.4007 12.2421 10.9984 12.0695C11.8556 11.8252 13.7161 11.6748 15.6698 11.5809L15.969 11.5677L16.2717 11.5565L16.4231 11.5508L16.7241 11.5377C18.3992 11.4801 20.075 11.4482 21.751 11.4418H22.0907V11.4399ZM19.1847 17.4721V26.5259L26.5015 22.0009L19.1847 17.4721Z" fill="#1746F9"/>
</svg>
