<svg width="44" height="44" viewBox="0 0 44 44" fill="none" xmlns="http://www.w3.org/2000/svg">
<rect width="44" height="44" rx="8" fill="white"/>
<path fill-rule="evenodd" clip-rule="evenodd" d="M8.79999 22.0737C8.79999 28.6364 13.5663 34.0934 19.8 35.2001V25.6663H16.5V22H19.8V19.0663C19.8 15.7663 21.9263 13.9337 24.9337 13.9337C25.8863 13.9337 26.9137 14.08 27.8663 14.2263V17.6H26.18C24.5663 17.6 24.2 18.4063 24.2 19.4337V22H27.72L27.1337 25.6663H24.2V35.2001C30.4337 34.0934 35.2 28.6374 35.2 22.0737C35.2 14.773 29.26 8.80005 22 8.80005C14.74 8.80005 8.79999 14.773 8.79999 22.0737Z" fill="#1746F9"/>
</svg>
