<svg width="80" height="80" viewBox="0 0 80 80" fill="none" xmlns="http://www.w3.org/2000/svg">
<rect width="80" height="80" rx="8" fill="#E8E8E8"/>
<path d="M40 16L20 24.6132V37.533C20 49.4838 28.5333 60.6595 40 63.3726C51.4667 60.6595 60 49.4838 60 37.533V24.6132L40 16ZM40 24.6132C41.7681 24.6132 43.4638 25.2938 44.714 26.5053C45.9643 27.7167 46.6667 29.3598 46.6667 31.0731C46.6667 32.7864 45.9643 34.4295 44.714 35.6409C43.4638 36.8524 41.7681 37.533 40 37.533C38.2319 37.533 36.5362 36.8524 35.286 35.6409C34.0357 34.4295 33.3333 32.7864 33.3333 31.0731C33.3333 29.3598 34.0357 27.7167 35.286 26.5053C36.5362 25.2938 38.2319 24.6132 40 24.6132M51.4 50.4528C48.7075 54.4465 44.6841 57.4256 40 58.8937C35.3159 57.4256 31.2925 54.4465 28.6 50.4528C27.8444 49.3762 27.2 48.2995 26.6667 47.1583C26.6667 43.6053 32.6889 40.6984 40 40.6984C47.3111 40.6984 53.3333 43.5407 53.3333 47.1583C52.8 48.2995 52.1556 49.3762 51.4 50.4528Z" fill="#1E2748"/>
</svg>
