<svg width="40" height="18" viewBox="0 0 40 18" fill="none" xmlns="http://www.w3.org/2000/svg">
<path d="M8.50809 5.31921V8.78821H7.79332V5.31921H8.50809ZM9.88997 6.80116V7.35868H8.31272V6.80116H9.88997ZM10.0568 5.31921V5.87911H8.31272V5.31921H10.0568ZM10.4713 5.31921H11.765C12.0303 5.31921 12.2582 5.35892 12.4488 5.43834C12.641 5.51776 12.7887 5.6353 12.892 5.79096C12.9952 5.94662 13.0469 6.13801 13.0469 6.36515C13.0469 6.55099 13.0151 6.71062 12.9516 6.84404C12.8896 6.97588 12.8015 7.08627 12.6871 7.17522C12.5743 7.26258 12.4417 7.33247 12.2892 7.38488L12.0629 7.50401H10.9383L10.9335 6.94649H11.7698C11.8953 6.94649 11.9993 6.92426 12.0819 6.87978C12.1645 6.83531 12.2265 6.77336 12.2678 6.69394C12.3106 6.61452 12.3321 6.5224 12.3321 6.41757C12.3321 6.30638 12.3114 6.21028 12.2701 6.12928C12.2288 6.04827 12.1661 5.98632 12.0819 5.94344C11.9977 5.90055 11.8921 5.87911 11.765 5.87911H11.1861V8.78821H10.4713V5.31921ZM12.4107 8.78821L11.6197 7.24193L12.375 7.23717L13.1755 8.75485V8.78821H12.4107ZM15.925 8.23069V8.78821H14.0785V8.23069H15.925ZM14.312 5.31921V8.78821H13.5972V5.31921H14.312ZM15.6843 6.73206V7.27529H14.0785V6.73206H15.6843ZM15.9226 5.31921V5.87911H14.0785V5.31921H15.9226ZM18.6697 8.23069V8.78821H16.8232V8.23069H18.6697ZM17.0567 5.31921V8.78821H16.3419V5.31921H17.0567ZM18.429 6.73206V7.27529H16.8232V6.73206H18.429ZM18.6673 5.31921V5.87911H16.8232V5.31921H18.6673Z" fill="white"/>
<path d="M8.52881 12.5016V14.4185C8.52881 14.5148 8.60683 14.5928 8.70308 14.5928H12.0029C12.1034 14.5928 12.1846 14.508 12.188 14.4075C12.209 13.7846 12.4664 11.8045 14.8895 11.8045C17.3126 11.8045 17.57 13.7846 17.5911 14.4075C17.5945 14.508 17.6757 14.5928 17.7762 14.5928H29.7894C29.8856 14.5928 29.9649 14.5154 29.974 14.4196C30.0319 13.8107 30.4133 11.8045 32.9262 11.8045C35.4391 11.8045 35.8205 13.8107 35.8783 14.4196C35.8874 14.5154 35.9667 14.5928 36.063 14.5928H38.5027C38.5989 14.5928 38.677 14.5148 38.677 14.4185V9.11795C38.677 9.05512 38.6431 8.99716 38.5885 8.96624L34.7067 6.77223C34.6818 6.75816 34.6608 6.73819 34.6455 6.71408L31.0606 1.08071C31.0286 1.03044 30.9731 1 30.9136 1H8.70308C8.60683 1 8.52881 1.07802 8.52881 1.17427V2.74267" stroke="white" stroke-width="1.0456" stroke-linecap="round" stroke-linejoin="round"/>
<path d="M26.1297 7.09937V3.43977C26.1297 3.34352 26.2077 3.2655 26.304 3.2655H29.5171C29.5779 3.2655 29.6343 3.29721 29.666 3.34916L31.8935 7.00876C31.9642 7.12489 31.8806 7.27364 31.7447 7.27364H26.304C26.2077 7.27364 26.1297 7.19562 26.1297 7.09937Z" stroke="white" stroke-width="1.0456" stroke-linecap="round" stroke-linejoin="round"/>
<rect x="1.5" y="11.0215" width="11" height="0.305556" rx="0.152778" fill="white"/>
<rect x="0.5" y="10.0619" width="12.1987" height="0.348534" rx="0.174267" fill="white"/>
<rect x="1.55835" y="8.31909" width="3.48534" height="0.348534" rx="0.174267" fill="white"/>
<circle cx="14.8025" cy="14.5927" r="2.614" stroke="white" stroke-width="1.0456"/>
<circle cx="32.9262" cy="14.5927" r="2.614" stroke="white" stroke-width="1.0456"/>
</svg>
