<svg width="1440" height="562" viewBox="0 0 1440 562" fill="none" xmlns="http://www.w3.org/2000/svg">
<path d="M1500.71 0.684692C1486.71 103.518 1359.01 305.785 1132.21 204.185C848.714 77.1846 674.214 74.1847 636.714 366.185C599.214 658.185 201.714 565.185 78.2144 455.685C-39.1587 351.617 -139.286 371.685 -120.786 474.185" stroke="#E8E8E8"/>
<path d="M1479.71 0.684692C1465.71 103.518 1338.01 305.785 1111.21 204.185C827.714 77.1846 653.214 74.1847 615.714 366.185C578.214 658.185 180.714 565.185 57.2144 455.685C-60.1587 351.617 -160.286 371.685 -141.786 474.185" stroke="#E8E8E8"/>
<path d="M1458.71 0.684692C1444.71 103.518 1317.01 305.785 1090.21 204.185C806.714 77.1846 632.214 74.1847 594.714 366.185C557.214 658.185 159.714 565.185 36.2144 455.685C-81.1587 351.617 -181.286 371.685 -162.786 474.185" stroke="#E8E8E8"/>
<path d="M1524.71 0.684692C1510.71 103.518 1383.01 305.785 1156.21 204.185C872.714 77.1846 698.214 74.1847 660.714 366.185C623.214 658.185 225.714 565.185 102.214 455.685C-15.1587 351.617 -115.286 371.685 -96.7856 474.185" stroke="#E8E8E8"/>
<path d="M1548.71 0.684692C1534.71 103.518 1407.01 305.785 1180.21 204.185C896.714 77.1846 722.214 74.1847 684.714 366.185C647.214 658.185 249.714 565.185 126.214 455.685C8.84134 351.617 -91.2856 371.685 -72.7856 474.185" stroke="#E8E8E8"/>
<path d="M1572.71 0.684692C1558.71 103.518 1431.01 305.785 1204.21 204.185C920.714 77.1846 746.214 74.1847 708.714 366.185C671.214 658.185 273.714 565.185 150.214 455.685C32.8413 351.617 -67.2856 371.685 -48.7856 474.185" stroke="#E8E8E8"/>
<path d="M1596.71 0.684692C1582.71 103.518 1455.01 305.785 1228.21 204.185C944.714 77.1846 770.214 74.1847 732.714 366.185C695.214 658.185 297.714 565.185 174.214 455.685C56.8413 351.617 -43.2856 371.685 -24.7856 474.185" stroke="#E8E8E8"/>
</svg>
