<svg width="31" height="33" viewBox="0 0 31 33" fill="none" xmlns="http://www.w3.org/2000/svg">
<path d="M29.1275 3.56404C22.3671 4.81528 17.1894 3.0427 15.4457 2C10.7777 4.86742 4.60303 4.23745 1.83089 3.56404C-0.516459 23.8315 10.2144 30.6524 15.4457 31C26.1095 29.436 30.9384 16.8584 29.1275 3.56404Z" stroke="white" stroke-width="2"/>
<path d="M21.1451 12.8409C21.6477 13.3325 21.6477 14.1294 21.1451 14.6209L14.7045 20.921C14.2019 21.4126 13.3872 21.4125 12.8847 20.921L9.28856 17.4034C8.78602 16.9118 8.78595 16.1149 9.2885 15.6234C9.79104 15.1318 10.6059 15.1318 11.1082 15.6234L13.7946 18.251L19.3253 12.841C19.8278 12.3494 20.6426 12.3494 21.1451 12.8409Z" fill="white"/>
</svg>
