 <svg
            width="123"
            height="34"
            viewBox="0 0 123 34"
            fill="none"
            xmlns="http://www.w3.org/2000/svg"
          >
            <path
              d="M45.8252 12.0469H47.5615L50.1182 19.3545L52.6748 12.0469H54.4111L50.8154 22H49.4209L45.8252 12.0469ZM44.8887 12.0469H46.6182L46.9326 19.1699V22H44.8887V12.0469ZM53.6182 12.0469H55.3545V22H53.3037V19.1699L53.6182 12.0469ZM61.0215 20.332V17.0371C61.0215 16.8001 60.9827 16.5973 60.9053 16.4287C60.8278 16.2555 60.707 16.1211 60.543 16.0254C60.3835 15.9297 60.1761 15.8818 59.9209 15.8818C59.7021 15.8818 59.513 15.9206 59.3535 15.998C59.194 16.071 59.071 16.1781 58.9844 16.3193C58.8978 16.4561 58.8545 16.6178 58.8545 16.8047H56.8857C56.8857 16.4902 56.9587 16.1917 57.1045 15.9092C57.2503 15.6266 57.4622 15.3783 57.7402 15.1641C58.0182 14.9453 58.3486 14.7744 58.7314 14.6514C59.1188 14.5283 59.5518 14.4668 60.0303 14.4668C60.6045 14.4668 61.1149 14.5625 61.5615 14.7539C62.0081 14.9453 62.359 15.2324 62.6143 15.6152C62.874 15.998 63.0039 16.4766 63.0039 17.0508V20.2158C63.0039 20.6214 63.029 20.9541 63.0791 21.2139C63.1292 21.4691 63.2021 21.6924 63.2979 21.8838V22H61.3086C61.2129 21.7995 61.14 21.5488 61.0898 21.248C61.0443 20.9427 61.0215 20.6374 61.0215 20.332ZM61.2812 17.4951L61.2949 18.6094H60.1943C59.9346 18.6094 59.709 18.639 59.5176 18.6982C59.3262 18.7575 59.1689 18.8418 59.0459 18.9512C58.9229 19.056 58.8317 19.179 58.7725 19.3203C58.7178 19.4616 58.6904 19.6165 58.6904 19.7852C58.6904 19.9538 58.7292 20.1064 58.8066 20.2432C58.8841 20.3753 58.9958 20.4801 59.1416 20.5576C59.2874 20.6305 59.4583 20.667 59.6543 20.667C59.9505 20.667 60.208 20.6077 60.4268 20.4893C60.6455 20.3708 60.8141 20.2249 60.9326 20.0518C61.0557 19.8786 61.1195 19.7145 61.124 19.5596L61.6436 20.3936C61.5706 20.5804 61.4704 20.7741 61.3428 20.9746C61.2197 21.1751 61.0625 21.3643 60.8711 21.542C60.6797 21.7152 60.4495 21.8587 60.1807 21.9727C59.9118 22.082 59.5928 22.1367 59.2236 22.1367C58.7542 22.1367 58.3281 22.0433 57.9453 21.8564C57.5671 21.665 57.2663 21.403 57.043 21.0703C56.8242 20.7331 56.7148 20.3503 56.7148 19.9219C56.7148 19.5345 56.7878 19.1904 56.9336 18.8896C57.0794 18.5889 57.2936 18.3359 57.5762 18.1309C57.8633 17.9212 58.221 17.764 58.6494 17.6592C59.0778 17.5498 59.5745 17.4951 60.1396 17.4951H61.2812ZM66.4492 16.1826V22H64.4805V14.6035H66.3262L66.4492 16.1826ZM66.1621 18.042H65.6289C65.6289 17.4951 65.6995 17.0029 65.8408 16.5654C65.9821 16.1234 66.1803 15.7474 66.4355 15.4375C66.6908 15.123 66.9938 14.8838 67.3447 14.7197C67.7002 14.5511 68.0967 14.4668 68.5342 14.4668C68.8805 14.4668 69.1973 14.5169 69.4844 14.6172C69.7715 14.7174 70.0176 14.877 70.2227 15.0957C70.4323 15.3145 70.5918 15.6038 70.7012 15.9639C70.8151 16.3239 70.8721 16.7637 70.8721 17.2832V22H68.8896V17.2764C68.8896 16.9482 68.8441 16.693 68.7529 16.5107C68.6618 16.3285 68.5273 16.2008 68.3496 16.1279C68.1764 16.0505 67.9622 16.0117 67.707 16.0117C67.4427 16.0117 67.2126 16.0641 67.0166 16.1689C66.8252 16.2738 66.6657 16.4196 66.5381 16.6064C66.415 16.7887 66.3216 17.0029 66.2578 17.249C66.194 17.4951 66.1621 17.7594 66.1621 18.042ZM77.0518 14.6035H78.8359V21.7539C78.8359 22.4284 78.6855 23.0003 78.3848 23.4697C78.0885 23.9437 77.6738 24.3014 77.1406 24.543C76.6074 24.7891 75.9876 24.9121 75.2812 24.9121C74.9714 24.9121 74.6432 24.8711 74.2969 24.7891C73.9551 24.707 73.627 24.5794 73.3125 24.4062C73.0026 24.2331 72.7428 24.0143 72.5332 23.75L73.4014 22.5879C73.6292 22.8522 73.8936 23.0573 74.1943 23.2031C74.4951 23.3535 74.8278 23.4287 75.1924 23.4287C75.5479 23.4287 75.8486 23.3626 76.0947 23.2305C76.3408 23.1029 76.5299 22.9137 76.6621 22.6631C76.7943 22.417 76.8604 22.1185 76.8604 21.7676V16.3125L77.0518 14.6035ZM72.0752 18.3906V18.2471C72.0752 17.682 72.1436 17.1693 72.2803 16.709C72.4215 16.2441 72.6198 15.8454 72.875 15.5127C73.1348 15.18 73.4492 14.9225 73.8184 14.7402C74.1875 14.5579 74.6045 14.4668 75.0693 14.4668C75.5615 14.4668 75.974 14.5579 76.3066 14.7402C76.6393 14.9225 76.9128 15.1823 77.127 15.5195C77.3411 15.8522 77.5075 16.2464 77.626 16.7021C77.749 17.1533 77.8447 17.6478 77.9131 18.1855V18.5C77.8447 19.015 77.7422 19.4935 77.6055 19.9355C77.4688 20.3776 77.2887 20.765 77.0654 21.0977C76.8421 21.4258 76.5641 21.681 76.2314 21.8633C75.9033 22.0456 75.5114 22.1367 75.0557 22.1367C74.5999 22.1367 74.1875 22.0433 73.8184 21.8564C73.4538 21.6696 73.1416 21.4076 72.8818 21.0703C72.6221 20.7331 72.4215 20.3366 72.2803 19.8809C72.1436 19.4251 72.0752 18.9284 72.0752 18.3906ZM74.0439 18.2471V18.3906C74.0439 18.696 74.0736 18.9808 74.1328 19.2451C74.1921 19.5094 74.2832 19.7441 74.4062 19.9492C74.5339 20.1497 74.6911 20.307 74.8779 20.4209C75.0693 20.5303 75.2949 20.585 75.5547 20.585C75.9147 20.585 76.2087 20.5098 76.4365 20.3594C76.6644 20.2044 76.8353 19.9925 76.9492 19.7236C77.0632 19.4548 77.1292 19.1449 77.1475 18.7939V17.8984C77.1383 17.6113 77.0996 17.3538 77.0312 17.126C76.9629 16.8936 76.8672 16.6953 76.7441 16.5312C76.6211 16.3672 76.4616 16.2396 76.2656 16.1484C76.0697 16.0573 75.8372 16.0117 75.5684 16.0117C75.3086 16.0117 75.083 16.071 74.8916 16.1895C74.7048 16.3034 74.5475 16.4606 74.4199 16.6611C74.2969 16.8617 74.2035 17.0986 74.1396 17.3721C74.0758 17.641 74.0439 17.9326 74.0439 18.2471ZM83.4229 20.5986C83.6644 20.5986 83.8786 20.5531 84.0654 20.4619C84.2523 20.3662 84.3981 20.234 84.5029 20.0654C84.6123 19.8923 84.6693 19.6895 84.6738 19.457H86.5264C86.5218 19.9766 86.3828 20.4391 86.1094 20.8447C85.8359 21.2458 85.4691 21.5625 85.0088 21.7949C84.5485 22.0228 84.0335 22.1367 83.4639 22.1367C82.8896 22.1367 82.3883 22.041 81.96 21.8496C81.5361 21.6582 81.1829 21.3939 80.9004 21.0566C80.6178 20.7148 80.4059 20.3184 80.2646 19.8672C80.1234 19.4115 80.0527 18.9238 80.0527 18.4043V18.2061C80.0527 17.682 80.1234 17.1943 80.2646 16.7432C80.4059 16.2874 80.6178 15.891 80.9004 15.5537C81.1829 15.2119 81.5361 14.9453 81.96 14.7539C82.3838 14.5625 82.8805 14.4668 83.4502 14.4668C84.0563 14.4668 84.5872 14.583 85.043 14.8154C85.5033 15.0479 85.8633 15.3805 86.123 15.8135C86.3874 16.2419 86.5218 16.75 86.5264 17.3379H84.6738C84.6693 17.0918 84.6169 16.8685 84.5166 16.668C84.4209 16.4674 84.2796 16.3079 84.0928 16.1895C83.9105 16.0664 83.6849 16.0049 83.416 16.0049C83.1289 16.0049 82.8942 16.0664 82.7119 16.1895C82.5296 16.3079 82.3883 16.472 82.2881 16.6816C82.1878 16.8867 82.1172 17.1214 82.0762 17.3857C82.0397 17.6455 82.0215 17.9189 82.0215 18.2061V18.4043C82.0215 18.6914 82.0397 18.9671 82.0762 19.2314C82.1126 19.4958 82.181 19.7305 82.2812 19.9355C82.3861 20.1406 82.5296 20.3024 82.7119 20.4209C82.8942 20.5394 83.1312 20.5986 83.4229 20.5986ZM87.3535 18.377V18.2334C87.3535 17.6911 87.431 17.1921 87.5859 16.7363C87.7409 16.276 87.9665 15.8773 88.2627 15.54C88.5589 15.2028 88.9235 14.9408 89.3564 14.7539C89.7894 14.5625 90.2861 14.4668 90.8467 14.4668C91.4072 14.4668 91.9062 14.5625 92.3438 14.7539C92.7812 14.9408 93.1481 15.2028 93.4443 15.54C93.7451 15.8773 93.973 16.276 94.1279 16.7363C94.2829 17.1921 94.3604 17.6911 94.3604 18.2334V18.377C94.3604 18.9147 94.2829 19.4137 94.1279 19.874C93.973 20.3298 93.7451 20.7285 93.4443 21.0703C93.1481 21.4076 92.7835 21.6696 92.3506 21.8564C91.9176 22.0433 91.4209 22.1367 90.8604 22.1367C90.2998 22.1367 89.8008 22.0433 89.3633 21.8564C88.9303 21.6696 88.5635 21.4076 88.2627 21.0703C87.9665 20.7285 87.7409 20.3298 87.5859 19.874C87.431 19.4137 87.3535 18.9147 87.3535 18.377ZM89.3223 18.2334V18.377C89.3223 18.6868 89.3496 18.9762 89.4043 19.2451C89.459 19.514 89.5456 19.751 89.6641 19.9561C89.7871 20.1566 89.9466 20.3138 90.1426 20.4277C90.3385 20.5417 90.5778 20.5986 90.8604 20.5986C91.1338 20.5986 91.3685 20.5417 91.5645 20.4277C91.7604 20.3138 91.9176 20.1566 92.0361 19.9561C92.1546 19.751 92.2412 19.514 92.2959 19.2451C92.3551 18.9762 92.3848 18.6868 92.3848 18.377V18.2334C92.3848 17.9326 92.3551 17.6501 92.2959 17.3857C92.2412 17.1169 92.1523 16.8799 92.0293 16.6748C91.9108 16.4652 91.7536 16.3011 91.5576 16.1826C91.3617 16.0641 91.1247 16.0049 90.8467 16.0049C90.5687 16.0049 90.3317 16.0641 90.1357 16.1826C89.9443 16.3011 89.7871 16.4652 89.6641 16.6748C89.5456 16.8799 89.459 17.1169 89.4043 17.3857C89.3496 17.6501 89.3223 17.9326 89.3223 18.2334ZM99.9385 20.3867V11.5H101.921V22H100.137L99.9385 20.3867ZM95.2627 18.3906V18.2471C95.2627 17.682 95.3265 17.1693 95.4541 16.709C95.5817 16.2441 95.7686 15.8454 96.0146 15.5127C96.2607 15.18 96.5638 14.9225 96.9238 14.7402C97.2839 14.5579 97.694 14.4668 98.1543 14.4668C98.5872 14.4668 98.9655 14.5579 99.2891 14.7402C99.6172 14.9225 99.8952 15.1823 100.123 15.5195C100.355 15.8522 100.542 16.2464 100.684 16.7021C100.825 17.1533 100.927 17.6478 100.991 18.1855V18.5C100.927 19.015 100.825 19.4935 100.684 19.9355C100.542 20.3776 100.355 20.765 100.123 21.0977C99.8952 21.4258 99.6172 21.681 99.2891 21.8633C98.9609 22.0456 98.5781 22.1367 98.1406 22.1367C97.6803 22.1367 97.2702 22.0433 96.9102 21.8564C96.5547 21.6696 96.2539 21.4076 96.0078 21.0703C95.7663 20.7331 95.5817 20.3366 95.4541 19.8809C95.3265 19.4251 95.2627 18.9284 95.2627 18.3906ZM97.2314 18.2471V18.3906C97.2314 18.696 97.2542 18.9808 97.2998 19.2451C97.3499 19.5094 97.4297 19.7441 97.5391 19.9492C97.653 20.1497 97.7988 20.307 97.9766 20.4209C98.1589 20.5303 98.3799 20.585 98.6396 20.585C98.9769 20.585 99.2549 20.5098 99.4736 20.3594C99.6924 20.2044 99.8587 19.9925 99.9727 19.7236C100.091 19.4548 100.16 19.1449 100.178 18.7939V17.8984C100.164 17.6113 100.123 17.3538 100.055 17.126C99.9909 16.8936 99.8952 16.6953 99.7676 16.5312C99.6445 16.3672 99.4896 16.2396 99.3027 16.1484C99.1204 16.0573 98.904 16.0117 98.6533 16.0117C98.3981 16.0117 98.1794 16.071 97.9971 16.1895C97.8148 16.3034 97.6667 16.4606 97.5527 16.6611C97.4434 16.8617 97.3613 17.0986 97.3066 17.3721C97.2565 17.641 97.2314 17.9326 97.2314 18.2471ZM105.537 14.6035V22H103.562V14.6035H105.537ZM103.438 12.6758C103.438 12.3887 103.539 12.1517 103.739 11.9648C103.94 11.778 104.209 11.6846 104.546 11.6846C104.879 11.6846 105.145 11.778 105.346 11.9648C105.551 12.1517 105.653 12.3887 105.653 12.6758C105.653 12.9629 105.551 13.1999 105.346 13.3867C105.145 13.5736 104.879 13.667 104.546 13.667C104.209 13.667 103.94 13.5736 103.739 13.3867C103.539 13.1999 103.438 12.9629 103.438 12.6758ZM109.092 16.1826V22H107.123V14.6035H108.969L109.092 16.1826ZM108.805 18.042H108.271C108.271 17.4951 108.342 17.0029 108.483 16.5654C108.625 16.1234 108.823 15.7474 109.078 15.4375C109.333 15.123 109.636 14.8838 109.987 14.7197C110.343 14.5511 110.739 14.4668 111.177 14.4668C111.523 14.4668 111.84 14.5169 112.127 14.6172C112.414 14.7174 112.66 14.877 112.865 15.0957C113.075 15.3145 113.234 15.6038 113.344 15.9639C113.458 16.3239 113.515 16.7637 113.515 17.2832V22H111.532V17.2764C111.532 16.9482 111.487 16.693 111.396 16.5107C111.304 16.3285 111.17 16.2008 110.992 16.1279C110.819 16.0505 110.605 16.0117 110.35 16.0117C110.085 16.0117 109.855 16.0641 109.659 16.1689C109.468 16.2738 109.308 16.4196 109.181 16.6064C109.058 16.7887 108.964 17.0029 108.9 17.249C108.837 17.4951 108.805 17.7594 108.805 18.042ZM119.694 14.6035H121.479V21.7539C121.479 22.4284 121.328 23.0003 121.027 23.4697C120.731 23.9437 120.316 24.3014 119.783 24.543C119.25 24.7891 118.63 24.9121 117.924 24.9121C117.614 24.9121 117.286 24.8711 116.939 24.7891C116.598 24.707 116.27 24.5794 115.955 24.4062C115.645 24.2331 115.385 24.0143 115.176 23.75L116.044 22.5879C116.272 22.8522 116.536 23.0573 116.837 23.2031C117.138 23.3535 117.47 23.4287 117.835 23.4287C118.19 23.4287 118.491 23.3626 118.737 23.2305C118.983 23.1029 119.173 22.9137 119.305 22.6631C119.437 22.417 119.503 22.1185 119.503 21.7676V16.3125L119.694 14.6035ZM114.718 18.3906V18.2471C114.718 17.682 114.786 17.1693 114.923 16.709C115.064 16.2441 115.262 15.8454 115.518 15.5127C115.777 15.18 116.092 14.9225 116.461 14.7402C116.83 14.5579 117.247 14.4668 117.712 14.4668C118.204 14.4668 118.617 14.5579 118.949 14.7402C119.282 14.9225 119.555 15.1823 119.77 15.5195C119.984 15.8522 120.15 16.2464 120.269 16.7021C120.392 17.1533 120.487 17.6478 120.556 18.1855V18.5C120.487 19.015 120.385 19.4935 120.248 19.9355C120.111 20.3776 119.931 20.765 119.708 21.0977C119.485 21.4258 119.207 21.681 118.874 21.8633C118.546 22.0456 118.154 22.1367 117.698 22.1367C117.243 22.1367 116.83 22.0433 116.461 21.8564C116.096 21.6696 115.784 21.4076 115.524 21.0703C115.265 20.7331 115.064 20.3366 114.923 19.8809C114.786 19.4251 114.718 18.9284 114.718 18.3906ZM116.687 18.2471V18.3906C116.687 18.696 116.716 18.9808 116.775 19.2451C116.835 19.5094 116.926 19.7441 117.049 19.9492C117.176 20.1497 117.334 20.307 117.521 20.4209C117.712 20.5303 117.938 20.585 118.197 20.585C118.557 20.585 118.851 20.5098 119.079 20.3594C119.307 20.2044 119.478 19.9925 119.592 19.7236C119.706 19.4548 119.772 19.1449 119.79 18.7939V17.8984C119.781 17.6113 119.742 17.3538 119.674 17.126C119.605 16.8936 119.51 16.6953 119.387 16.5312C119.264 16.3672 119.104 16.2396 118.908 16.1484C118.712 16.0573 118.48 16.0117 118.211 16.0117C117.951 16.0117 117.726 16.071 117.534 16.1895C117.347 16.3034 117.19 16.4606 117.062 16.6611C116.939 16.8617 116.846 17.0986 116.782 17.3721C116.718 17.641 116.687 17.9326 116.687 18.2471Z"
              fill="#2F2F2F"
            />
            <path
              d="M35.0463 0H0.214311C0.0960349 0 0 0.0964564 0 0.215448V33.7193C0 33.8383 0.0960349 33.9347 0.214311 33.9347H35.0463C35.1646 33.9347 35.26 33.8383 35.26 33.7193V0.215448C35.26 0.0964564 35.1646 0 35.0463 0Z"
              fill="#0EC5D7"
            />
            <path d="M9.32031 7.46814V26.4667V7.46814Z" fill="white" />
            <path
              d="M9.32031 7.46814V26.4667"
              stroke="white"
              stroke-width="3.08178"
            />
            <path d="M15.0117 7.46814V16.9315V7.46814Z" fill="white" />
            <path
              d="M15.0117 7.46814V16.9315"
              stroke="white"
              stroke-width="3.07593"
            />
            <path
              d="M19.3496 7.46875V10.6831H24.782L28.7227 18.826H32.271L26.6356 7.46875H19.3496Z"
              fill="white"
            />
            <path d="M20.9629 14.1666V26.8439V14.1666Z" fill="white" />
            <path
              d="M20.9629 14.1666V26.8439"
              stroke="white"
              stroke-width="3.56014"
            />
          </svg>